<svg width="20" height="20" viewBox="0 0 20 20" xmlns="http://www.w3.org/2000/svg">
        <path d="M9.998 18.889a2.351 2.351 0 0 1-1.727-.726l-6.547-6.637c-2.316-2.39-2.295-6.254.042-8.623a5.995 5.995 0 0 1 4.273-1.792c1.475 0 2.842.533 3.959 1.495a5.965 5.965 0 0 1 3.958-1.495c1.62 0 3.136.64 4.273 1.792 2.358 2.39 2.358 6.255.022 8.645l-.022.02-6.484 6.595a2.521 2.521 0 0 1-1.747.726zm-6.593-8.713 6.305 6.38a.406.406 0 0 0 .556 0l6.325-6.402c0-.02.02-.02.04-.042l.021-.02a4.006 4.006 0 0 0-.02-5.59 3.873 3.873 0 0 0-2.76-1.169 3.94 3.94 0 0 0-2.76 1.147l-.022.021-.04.042-.33.355a1.047 1.047 0 0 1-.722.312c-.268 0-.536-.103-.72-.291l-.351-.355-.041-.042a3.825 3.825 0 0 0-2.76-1.146 3.808 3.808 0 0 0-2.76 1.167 3.988 3.988 0 0 0 0 5.59l.02.021c-.001-.02.02 0 .02.022h-.001z" fill="#000"/>
</svg>
