<svg width="20" height="20" viewBox="-2 0 20 20" xmlns="http://www.w3.org/2000/svg">
  <path d="M4 8.889V5.082c0-1.576 1.155-2.86 2.574-2.86h2.852c1.419 0 2.574 1.284 2.574 2.86V8.89H4zm4.667 6.531v2.358H7.333V15.42C6.558 15.113 6 14.3 6 13.333c0-1.227.895-2.222 2-2.222s2 .995 2 2.222c0 .967-.558 1.78-1.333 2.087zm6.34-6.531H14V4.11C14 1.84 12.344 0 10.301 0H5.699C3.656 0 2 1.84 2 4.11v4.779h-.99C.455 8.889 0 9.394 0 10.01v8.867C0 19.494.455 20 1.01 20h13.997c.546 0 .993-.497.993-1.103V9.992c0-.606-.447-1.103-.993-1.103z" fill="#010202"/>
</svg>
